<mxfile host="app.diagrams.net" modified="2023-08-13T21:07:19.409Z" agent="Mozilla/5.0 (Windows NT 10.0; Win64; x64; rv:109.0) Gecko/20100101 Firefox/116.0" etag="hewYRuHFwgjxkh7Y7Z-t" version="21.6.8" type="github">
  <diagram name="Page-1" id="HFA6JCYLGKF2MRtkY4cA">
    <mxGraphModel dx="1304" dy="670" grid="1" gridSize="10" guides="1" tooltips="1" connect="1" arrows="1" fold="1" page="1" pageScale="1" pageWidth="850" pageHeight="1100" math="0" shadow="0">
      <root>
        <mxCell id="0" />
        <mxCell id="1" parent="0" />
        <mxCell id="zbqO09zLsfdr7-2cjy7o-1" value="" style="ellipse;html=1;shape=startState;fillColor=#000000;strokeColor=#ff0000;" vertex="1" parent="1">
          <mxGeometry x="410" width="30" height="30" as="geometry" />
        </mxCell>
        <mxCell id="zbqO09zLsfdr7-2cjy7o-2" value="" style="edgeStyle=orthogonalEdgeStyle;html=1;verticalAlign=bottom;endArrow=open;endSize=8;strokeColor=#ff0000;rounded=0;entryX=0.5;entryY=0;entryDx=0;entryDy=0;" edge="1" parent="1" source="zbqO09zLsfdr7-2cjy7o-1" target="zbqO09zLsfdr7-2cjy7o-3">
          <mxGeometry relative="1" as="geometry">
            <mxPoint x="425" y="80" as="targetPoint" />
          </mxGeometry>
        </mxCell>
        <mxCell id="zbqO09zLsfdr7-2cjy7o-3" value="IN SUITE WATER LEAKAGE/FLOOD" style="rounded=1;whiteSpace=wrap;html=1;arcSize=40;fontColor=#000000;fillColor=#ffffc0;strokeColor=#ff0000;" vertex="1" parent="1">
          <mxGeometry x="355.2" y="75" width="140" height="60" as="geometry" />
        </mxCell>
        <mxCell id="zbqO09zLsfdr7-2cjy7o-4" value="" style="edgeStyle=orthogonalEdgeStyle;html=1;verticalAlign=bottom;endArrow=open;endSize=8;strokeColor=#ff0000;rounded=0;" edge="1" parent="1" source="zbqO09zLsfdr7-2cjy7o-3">
          <mxGeometry relative="1" as="geometry">
            <mxPoint x="425" y="160" as="targetPoint" />
          </mxGeometry>
        </mxCell>
        <mxCell id="zbqO09zLsfdr7-2cjy7o-5" value="Situation Context" style="rounded=1;whiteSpace=wrap;html=1;arcSize=40;fontColor=#000000;fillColor=#ffffc0;strokeColor=#ff0000;" vertex="1" parent="1">
          <mxGeometry x="5" y="20" width="120" height="40" as="geometry" />
        </mxCell>
        <mxCell id="zbqO09zLsfdr7-2cjy7o-6" value="" style="edgeStyle=orthogonalEdgeStyle;html=1;verticalAlign=bottom;endArrow=open;endSize=8;strokeColor=#ff0000;rounded=0;" edge="1" parent="1">
          <mxGeometry relative="1" as="geometry">
            <mxPoint x="64.5" y="240" as="targetPoint" />
            <mxPoint x="65" y="180" as="sourcePoint" />
          </mxGeometry>
        </mxCell>
        <mxCell id="zbqO09zLsfdr7-2cjy7o-7" value="Flow" style="edgeLabel;html=1;align=center;verticalAlign=middle;resizable=0;points=[];" vertex="1" connectable="0" parent="zbqO09zLsfdr7-2cjy7o-6">
          <mxGeometry x="-0.3333" y="3" relative="1" as="geometry">
            <mxPoint x="-2" y="10" as="offset" />
          </mxGeometry>
        </mxCell>
        <mxCell id="zbqO09zLsfdr7-2cjy7o-8" value="Start Point" style="ellipse;html=1;shape=startState;fillColor=#000000;strokeColor=#ff0000;" vertex="1" parent="1">
          <mxGeometry x="50" y="250" width="30" height="30" as="geometry" />
        </mxCell>
        <mxCell id="zbqO09zLsfdr7-2cjy7o-9" value="End Point" style="ellipse;html=1;shape=endState;fillColor=#000000;strokeColor=#ff0000;" vertex="1" parent="1">
          <mxGeometry x="50" y="290" width="30" height="30" as="geometry" />
        </mxCell>
        <mxCell id="zbqO09zLsfdr7-2cjy7o-10" value="STEPS" style="shape=umlFrame;whiteSpace=wrap;html=1;pointerEvents=0;" vertex="1" parent="1">
          <mxGeometry y="70" width="130" height="90" as="geometry" />
        </mxCell>
        <mxCell id="zbqO09zLsfdr7-2cjy7o-11" value="STEP 1" style="shape=umlFrame;whiteSpace=wrap;html=1;pointerEvents=0;" vertex="1" parent="1">
          <mxGeometry x="260" y="160" width="330" height="80" as="geometry" />
        </mxCell>
        <mxCell id="zbqO09zLsfdr7-2cjy7o-12" value="TRY TO CONTAIN THE LEAK USING A BUCKET &lt;br&gt;OR CONTAINER" style="text;html=1;align=center;verticalAlign=middle;resizable=0;points=[];autosize=1;strokeColor=none;fillColor=none;" vertex="1" parent="1">
          <mxGeometry x="280" y="190" width="290" height="40" as="geometry" />
        </mxCell>
        <mxCell id="zbqO09zLsfdr7-2cjy7o-13" value="STEP 2" style="shape=umlFrame;whiteSpace=wrap;html=1;pointerEvents=0;" vertex="1" parent="1">
          <mxGeometry x="95" y="520" width="390" height="100" as="geometry" />
        </mxCell>
        <mxCell id="zbqO09zLsfdr7-2cjy7o-14" value="LOCATE THE SOURCE OF LEAK, CHECK UNITS DIRECTLY ABOVE,&lt;br&gt;AND ADJACENT OR ANY OTHER POSSIBLE PLACE WHERE THE&amp;nbsp;&lt;br&gt;LEAK COULD ORIGINATE FROM" style="text;html=1;align=center;verticalAlign=middle;resizable=0;points=[];autosize=1;strokeColor=none;fillColor=none;" vertex="1" parent="1">
          <mxGeometry x="90.19999999999999" y="550" width="400" height="60" as="geometry" />
        </mxCell>
        <mxCell id="zbqO09zLsfdr7-2cjy7o-15" value="" style="edgeStyle=orthogonalEdgeStyle;html=1;verticalAlign=bottom;endArrow=open;endSize=8;strokeColor=#ff0000;rounded=0;" edge="1" parent="1">
          <mxGeometry relative="1" as="geometry">
            <mxPoint x="425" y="270" as="targetPoint" />
            <mxPoint x="425" y="240" as="sourcePoint" />
          </mxGeometry>
        </mxCell>
        <mxCell id="zbqO09zLsfdr7-2cjy7o-16" value="STEP 3" style="shape=umlFrame;whiteSpace=wrap;html=1;pointerEvents=0;" vertex="1" parent="1">
          <mxGeometry x="405.2" y="730" width="360" height="70" as="geometry" />
        </mxCell>
        <mxCell id="zbqO09zLsfdr7-2cjy7o-17" value="CALL THE PROPERTY MANAGER FOR ADVISE AND&amp;nbsp;&lt;br&gt;GET CLEARANCE TO CALL BUILDING PLUMBER" style="text;html=1;align=center;verticalAlign=middle;resizable=0;points=[];autosize=1;strokeColor=none;fillColor=none;" vertex="1" parent="1">
          <mxGeometry x="450.2" y="745" width="320" height="40" as="geometry" />
        </mxCell>
        <mxCell id="zbqO09zLsfdr7-2cjy7o-18" value="" style="edgeStyle=orthogonalEdgeStyle;html=1;verticalAlign=bottom;endArrow=open;endSize=8;strokeColor=#ff0000;rounded=0;entryX=0.5;entryY=0;entryDx=0;entryDy=0;" edge="1" parent="1" target="zbqO09zLsfdr7-2cjy7o-40">
          <mxGeometry relative="1" as="geometry">
            <mxPoint x="424" y="660" as="targetPoint" />
            <mxPoint x="424" y="620" as="sourcePoint" />
          </mxGeometry>
        </mxCell>
        <mxCell id="zbqO09zLsfdr7-2cjy7o-19" value="STEP 4" style="shape=umlFrame;whiteSpace=wrap;html=1;pointerEvents=0;" vertex="1" parent="1">
          <mxGeometry x="265" y="1270" width="360" height="90" as="geometry" />
        </mxCell>
        <mxCell id="zbqO09zLsfdr7-2cjy7o-20" value="ASSESS DAMAGE, CALL PROPERTY MANAGER AND GET&amp;nbsp;&lt;br&gt;CLEARANCE TO CALL PLUMBERS/CONTRACTORS/CLEANING&lt;br&gt;CREW" style="text;html=1;align=center;verticalAlign=middle;resizable=0;points=[];autosize=1;strokeColor=none;fillColor=none;" vertex="1" parent="1">
          <mxGeometry x="255.2" y="1295" width="380" height="60" as="geometry" />
        </mxCell>
        <mxCell id="zbqO09zLsfdr7-2cjy7o-21" value="" style="edgeStyle=orthogonalEdgeStyle;html=1;verticalAlign=bottom;endArrow=open;endSize=8;strokeColor=#ff0000;rounded=0;" edge="1" parent="1">
          <mxGeometry relative="1" as="geometry">
            <mxPoint x="444.8" y="1400" as="targetPoint" />
            <mxPoint x="444.8" y="1360" as="sourcePoint" />
          </mxGeometry>
        </mxCell>
        <mxCell id="zbqO09zLsfdr7-2cjy7o-22" value="DISCLAIMER" style="swimlane;fontStyle=0;childLayout=stackLayout;horizontal=1;startSize=26;fillColor=#e51400;horizontalStack=0;resizeParent=1;resizeParentMax=0;resizeLast=0;collapsible=1;marginBottom=0;whiteSpace=wrap;html=1;fontColor=#ffffff;strokeColor=#B20000;" vertex="1" parent="1">
          <mxGeometry x="650" y="20" width="190" height="170" as="geometry" />
        </mxCell>
        <mxCell id="zbqO09zLsfdr7-2cjy7o-23" value="THIS MODULE IS DESIGNED TO TEST AND REFINE YOUR DECISION MAKING. &lt;br&gt;&lt;br&gt;THE MODULE USES GENERAL PROCEDURES, REFER TO YOUR RESPECTIVE BUILDING PROTOCOLS AND ADHERE TO THEM DURING DUTY" style="text;strokeColor=#B20000;fillColor=#e51400;align=center;verticalAlign=top;spacingLeft=4;spacingRight=4;overflow=hidden;rotatable=0;points=[[0,0.5],[1,0.5]];portConstraint=eastwest;whiteSpace=wrap;html=1;fontColor=#ffffff;" vertex="1" parent="zbqO09zLsfdr7-2cjy7o-22">
          <mxGeometry y="26" width="190" height="144" as="geometry" />
        </mxCell>
        <mxCell id="zbqO09zLsfdr7-2cjy7o-24" value="" style="edgeStyle=orthogonalEdgeStyle;html=1;verticalAlign=bottom;endArrow=open;endSize=8;strokeColor=#ff0000;rounded=0;" edge="1" parent="1">
          <mxGeometry relative="1" as="geometry">
            <mxPoint x="445" y="1270" as="targetPoint" />
            <mxPoint x="445" y="1230" as="sourcePoint" />
          </mxGeometry>
        </mxCell>
        <mxCell id="zbqO09zLsfdr7-2cjy7o-25" value="" style="shape=line;html=1;strokeWidth=6;strokeColor=#ff0000;" vertex="1" parent="1">
          <mxGeometry x="8" y="450" width="122" height="10" as="geometry" />
        </mxCell>
        <mxCell id="zbqO09zLsfdr7-2cjy7o-26" value="" style="edgeStyle=orthogonalEdgeStyle;html=1;verticalAlign=bottom;endArrow=open;endSize=8;strokeColor=#ff0000;rounded=0;" edge="1" parent="1" source="zbqO09zLsfdr7-2cjy7o-25">
          <mxGeometry relative="1" as="geometry">
            <mxPoint x="70" y="520" as="targetPoint" />
            <Array as="points">
              <mxPoint x="69" y="510" />
              <mxPoint x="70" y="510" />
            </Array>
          </mxGeometry>
        </mxCell>
        <mxCell id="zbqO09zLsfdr7-2cjy7o-27" value="Fork" style="text;html=1;align=center;verticalAlign=middle;resizable=0;points=[];autosize=1;strokeColor=none;fillColor=none;" vertex="1" parent="1">
          <mxGeometry x="45" y="430" width="50" height="30" as="geometry" />
        </mxCell>
        <mxCell id="zbqO09zLsfdr7-2cjy7o-28" value="DO NOT ANSWER ANY RESIDENT INQUIRIES REGARDING&lt;br&gt;LEAKAGE TO AVOID ANY MIS-INFORMATION. DIRECT ALL&amp;nbsp;&lt;br&gt;QUERIES TO PROPERTY MANAGEMENT." style="text;html=1;align=center;verticalAlign=middle;resizable=0;points=[];autosize=1;strokeColor=none;fillColor=none;" vertex="1" parent="1">
          <mxGeometry x="267" y="1430" width="360" height="60" as="geometry" />
        </mxCell>
        <mxCell id="zbqO09zLsfdr7-2cjy7o-29" value="STEP 5" style="shape=umlFrame;whiteSpace=wrap;html=1;pointerEvents=0;" vertex="1" parent="1">
          <mxGeometry x="265" y="1400" width="360" height="80" as="geometry" />
        </mxCell>
        <mxCell id="zbqO09zLsfdr7-2cjy7o-30" value="" style="edgeStyle=orthogonalEdgeStyle;html=1;verticalAlign=bottom;endArrow=open;endSize=8;strokeColor=#ff0000;rounded=0;" edge="1" parent="1">
          <mxGeometry relative="1" as="geometry">
            <mxPoint x="444" y="1520" as="targetPoint" />
            <mxPoint x="444" y="1480" as="sourcePoint" />
          </mxGeometry>
        </mxCell>
        <mxCell id="zbqO09zLsfdr7-2cjy7o-31" value="" style="edgeStyle=orthogonalEdgeStyle;html=1;verticalAlign=bottom;endArrow=open;endSize=8;strokeColor=#ff0000;rounded=0;" edge="1" parent="1" target="zbqO09zLsfdr7-2cjy7o-32">
          <mxGeometry relative="1" as="geometry">
            <mxPoint x="445.2" y="1660" as="targetPoint" />
            <mxPoint x="445.1999999999999" y="1590" as="sourcePoint" />
          </mxGeometry>
        </mxCell>
        <mxCell id="zbqO09zLsfdr7-2cjy7o-32" value="" style="ellipse;html=1;shape=endState;fillColor=#000000;strokeColor=#ff0000;" vertex="1" parent="1">
          <mxGeometry x="430.2" y="1645" width="30" height="30" as="geometry" />
        </mxCell>
        <mxCell id="zbqO09zLsfdr7-2cjy7o-33" value="MAKE A DETAILED INCIDENT REPORT WITH TIME STAMPS &lt;br&gt;OF EVERY STEP." style="text;html=1;align=center;verticalAlign=middle;resizable=0;points=[];autosize=1;strokeColor=none;fillColor=none;" vertex="1" parent="1">
          <mxGeometry x="265.2" y="1550" width="360" height="40" as="geometry" />
        </mxCell>
        <mxCell id="zbqO09zLsfdr7-2cjy7o-34" value="STEP 7" style="shape=umlFrame;whiteSpace=wrap;html=1;pointerEvents=0;" vertex="1" parent="1">
          <mxGeometry x="265.2" y="1520" width="360" height="70" as="geometry" />
        </mxCell>
        <mxCell id="zbqO09zLsfdr7-2cjy7o-35" value="Condition" style="rhombus;whiteSpace=wrap;html=1;fontColor=#000000;fillColor=#ffffc0;strokeColor=#ff0000;" vertex="1" parent="1">
          <mxGeometry x="70" y="370" width="80" height="40" as="geometry" />
        </mxCell>
        <mxCell id="zbqO09zLsfdr7-2cjy7o-36" value="" style="edgeStyle=orthogonalEdgeStyle;html=1;align=left;verticalAlign=bottom;endArrow=open;endSize=8;strokeColor=#ff0000;rounded=0;" edge="1" parent="1" source="zbqO09zLsfdr7-2cjy7o-35">
          <mxGeometry x="-0.2549" y="10" relative="1" as="geometry">
            <mxPoint x="210" y="390" as="targetPoint" />
            <mxPoint as="offset" />
          </mxGeometry>
        </mxCell>
        <mxCell id="zbqO09zLsfdr7-2cjy7o-37" value="" style="edgeStyle=orthogonalEdgeStyle;html=1;align=left;verticalAlign=top;endArrow=open;endSize=8;strokeColor=#ff0000;rounded=0;" edge="1" parent="1">
          <mxGeometry x="0.2" y="60" relative="1" as="geometry">
            <mxPoint x="10" y="390" as="targetPoint" />
            <mxPoint x="70" y="390" as="sourcePoint" />
            <Array as="points">
              <mxPoint x="70" y="390" />
              <mxPoint x="70" y="390" />
            </Array>
            <mxPoint as="offset" />
          </mxGeometry>
        </mxCell>
        <mxCell id="zbqO09zLsfdr7-2cjy7o-38" value="YES" style="text;html=1;align=center;verticalAlign=middle;resizable=0;points=[];autosize=1;strokeColor=none;fillColor=none;" vertex="1" parent="1">
          <mxGeometry x="15" y="360" width="50" height="30" as="geometry" />
        </mxCell>
        <mxCell id="zbqO09zLsfdr7-2cjy7o-39" value="NO" style="text;html=1;align=center;verticalAlign=middle;resizable=0;points=[];autosize=1;strokeColor=none;fillColor=none;" vertex="1" parent="1">
          <mxGeometry x="160" y="360" width="40" height="30" as="geometry" />
        </mxCell>
        <mxCell id="zbqO09zLsfdr7-2cjy7o-40" value="Condition" style="rhombus;whiteSpace=wrap;html=1;fontColor=#000000;fillColor=#ffffc0;strokeColor=#ff0000;" vertex="1" parent="1">
          <mxGeometry x="385" y="660" width="80" height="40" as="geometry" />
        </mxCell>
        <mxCell id="zbqO09zLsfdr7-2cjy7o-41" value="" style="edgeStyle=orthogonalEdgeStyle;html=1;align=left;verticalAlign=bottom;endArrow=open;endSize=8;strokeColor=#ff0000;rounded=0;" edge="1" parent="1" source="zbqO09zLsfdr7-2cjy7o-40">
          <mxGeometry x="-0.2549" y="10" relative="1" as="geometry">
            <mxPoint x="640" y="730" as="targetPoint" />
            <mxPoint as="offset" />
          </mxGeometry>
        </mxCell>
        <mxCell id="zbqO09zLsfdr7-2cjy7o-42" value="" style="edgeStyle=orthogonalEdgeStyle;html=1;align=left;verticalAlign=top;endArrow=open;endSize=8;strokeColor=#ff0000;rounded=0;entryX=0.5;entryY=0;entryDx=0;entryDy=0;" edge="1" parent="1" target="zbqO09zLsfdr7-2cjy7o-46">
          <mxGeometry x="0.2" y="60" relative="1" as="geometry">
            <mxPoint x="240" y="810" as="targetPoint" />
            <mxPoint x="385" y="680" as="sourcePoint" />
            <Array as="points">
              <mxPoint x="340" y="680" />
            </Array>
            <mxPoint as="offset" />
          </mxGeometry>
        </mxCell>
        <mxCell id="zbqO09zLsfdr7-2cjy7o-43" value="IF SOURCE LOCATED" style="text;html=1;align=center;verticalAlign=middle;resizable=0;points=[];autosize=1;strokeColor=none;fillColor=none;" vertex="1" parent="1">
          <mxGeometry x="230" y="650" width="150" height="30" as="geometry" />
        </mxCell>
        <mxCell id="zbqO09zLsfdr7-2cjy7o-44" value="IF UNABLE TO LOCATE" style="text;html=1;align=center;verticalAlign=middle;resizable=0;points=[];autosize=1;strokeColor=none;fillColor=none;" vertex="1" parent="1">
          <mxGeometry x="480" y="650" width="160" height="30" as="geometry" />
        </mxCell>
        <mxCell id="zbqO09zLsfdr7-2cjy7o-45" value="STEP 3" style="shape=umlFrame;whiteSpace=wrap;html=1;pointerEvents=0;" vertex="1" parent="1">
          <mxGeometry x="5" y="898" width="290" height="70" as="geometry" />
        </mxCell>
        <mxCell id="zbqO09zLsfdr7-2cjy7o-46" value="Condition" style="rhombus;whiteSpace=wrap;html=1;fontColor=#000000;fillColor=#ffffc0;strokeColor=#ff0000;" vertex="1" parent="1">
          <mxGeometry x="300" y="810" width="80" height="40" as="geometry" />
        </mxCell>
        <mxCell id="zbqO09zLsfdr7-2cjy7o-47" value="" style="edgeStyle=orthogonalEdgeStyle;html=1;align=left;verticalAlign=bottom;endArrow=open;endSize=8;strokeColor=#ff0000;rounded=0;entryX=0.524;entryY=0;entryDx=0;entryDy=0;entryPerimeter=0;" edge="1" parent="1" source="zbqO09zLsfdr7-2cjy7o-46" target="zbqO09zLsfdr7-2cjy7o-52">
          <mxGeometry x="-0.2549" y="10" relative="1" as="geometry">
            <mxPoint x="460" y="890" as="targetPoint" />
            <mxPoint as="offset" />
            <Array as="points">
              <mxPoint x="507" y="830" />
            </Array>
          </mxGeometry>
        </mxCell>
        <mxCell id="zbqO09zLsfdr7-2cjy7o-48" value="" style="edgeStyle=orthogonalEdgeStyle;html=1;align=left;verticalAlign=top;endArrow=open;endSize=8;strokeColor=#ff0000;rounded=0;exitX=0;exitY=0.5;exitDx=0;exitDy=0;" edge="1" parent="1" source="zbqO09zLsfdr7-2cjy7o-46">
          <mxGeometry x="0.2" y="60" relative="1" as="geometry">
            <mxPoint x="142" y="896" as="targetPoint" />
            <mxPoint x="200" y="830" as="sourcePoint" />
            <Array as="points">
              <mxPoint x="142" y="830" />
            </Array>
            <mxPoint as="offset" />
          </mxGeometry>
        </mxCell>
        <mxCell id="zbqO09zLsfdr7-2cjy7o-49" value="SOURCE IN SUITE" style="text;html=1;align=center;verticalAlign=middle;resizable=0;points=[];autosize=1;strokeColor=none;fillColor=none;" vertex="1" parent="1">
          <mxGeometry x="150" y="810" width="130" height="30" as="geometry" />
        </mxCell>
        <mxCell id="zbqO09zLsfdr7-2cjy7o-50" value="&amp;nbsp; &amp;nbsp;SOURCE IN COMMON AREA" style="text;html=1;align=center;verticalAlign=middle;resizable=0;points=[];autosize=1;strokeColor=none;fillColor=none;" vertex="1" parent="1">
          <mxGeometry x="365.2" y="810" width="190" height="30" as="geometry" />
        </mxCell>
        <mxCell id="zbqO09zLsfdr7-2cjy7o-51" value="SHUT OFF IN SUITE DOMESTIC WATER VALVE" style="text;html=1;align=center;verticalAlign=middle;resizable=0;points=[];autosize=1;strokeColor=none;fillColor=none;" vertex="1" parent="1">
          <mxGeometry x="5" y="926" width="290" height="30" as="geometry" />
        </mxCell>
        <mxCell id="zbqO09zLsfdr7-2cjy7o-52" value="STEP 3" style="shape=umlFrame;whiteSpace=wrap;html=1;pointerEvents=0;" vertex="1" parent="1">
          <mxGeometry x="355.2" y="898" width="290" height="70" as="geometry" />
        </mxCell>
        <mxCell id="zbqO09zLsfdr7-2cjy7o-53" value="SHUT OFF FLOOR/AMENITY&amp;nbsp;&lt;br&gt;&amp;nbsp;DOMESTIC WATER VALVE" style="text;html=1;align=center;verticalAlign=middle;resizable=0;points=[];autosize=1;strokeColor=none;fillColor=none;" vertex="1" parent="1">
          <mxGeometry x="405.2" y="921" width="190" height="40" as="geometry" />
        </mxCell>
        <mxCell id="zbqO09zLsfdr7-2cjy7o-54" value="Condition" style="rhombus;whiteSpace=wrap;html=1;fontColor=#000000;fillColor=#ffffc0;strokeColor=#ff0000;" vertex="1" parent="1">
          <mxGeometry x="385" y="270" width="80" height="40" as="geometry" />
        </mxCell>
        <mxCell id="zbqO09zLsfdr7-2cjy7o-55" value="" style="edgeStyle=orthogonalEdgeStyle;html=1;align=left;verticalAlign=bottom;endArrow=open;endSize=8;strokeColor=#ff0000;rounded=0;" edge="1" parent="1" source="zbqO09zLsfdr7-2cjy7o-54">
          <mxGeometry x="-0.2549" y="10" relative="1" as="geometry">
            <mxPoint x="600" y="330" as="targetPoint" />
            <mxPoint as="offset" />
          </mxGeometry>
        </mxCell>
        <mxCell id="zbqO09zLsfdr7-2cjy7o-56" value="" style="edgeStyle=orthogonalEdgeStyle;html=1;align=left;verticalAlign=top;endArrow=open;endSize=8;strokeColor=#ff0000;rounded=0;" edge="1" parent="1" target="zbqO09zLsfdr7-2cjy7o-13">
          <mxGeometry x="0.2" y="60" relative="1" as="geometry">
            <mxPoint x="280" y="480" as="targetPoint" />
            <mxPoint x="385" y="290" as="sourcePoint" />
            <Array as="points">
              <mxPoint x="279" y="290" />
            </Array>
            <mxPoint as="offset" />
          </mxGeometry>
        </mxCell>
        <mxCell id="zbqO09zLsfdr7-2cjy7o-57" value="IF CONTAINED" style="text;html=1;align=center;verticalAlign=middle;resizable=0;points=[];autosize=1;strokeColor=none;fillColor=none;" vertex="1" parent="1">
          <mxGeometry x="270" y="260" width="110" height="30" as="geometry" />
        </mxCell>
        <mxCell id="zbqO09zLsfdr7-2cjy7o-58" value="&lt;span style=&quot;background-color: rgb(255, 255, 255);&quot;&gt;IF FLOODING&lt;/span&gt;" style="text;html=1;align=center;verticalAlign=middle;resizable=0;points=[];autosize=1;strokeColor=none;fillColor=none;" vertex="1" parent="1">
          <mxGeometry x="510" y="260" width="100" height="30" as="geometry" />
        </mxCell>
        <mxCell id="zbqO09zLsfdr7-2cjy7o-59" value="STEP 3" style="shape=umlFrame;whiteSpace=wrap;html=1;pointerEvents=0;" vertex="1" parent="1">
          <mxGeometry x="430" y="330" width="360" height="70" as="geometry" />
        </mxCell>
        <mxCell id="zbqO09zLsfdr7-2cjy7o-60" value="TRY TO LOCATE SOURCE AS SOON AS POSSIBLE AND&amp;nbsp;&lt;br&gt;SHUT THE SUIT/FLOOR VALVE" style="text;html=1;align=center;verticalAlign=middle;resizable=0;points=[];autosize=1;strokeColor=none;fillColor=none;" vertex="1" parent="1">
          <mxGeometry x="450" y="360" width="340" height="40" as="geometry" />
        </mxCell>
        <mxCell id="zbqO09zLsfdr7-2cjy7o-61" style="edgeStyle=orthogonalEdgeStyle;rounded=0;orthogonalLoop=1;jettySize=auto;html=1;entryX=0.75;entryY=0.5;entryDx=0;entryDy=0;entryPerimeter=0;strokeColor=#FF3333;" edge="1" parent="1" source="zbqO09zLsfdr7-2cjy7o-62" target="zbqO09zLsfdr7-2cjy7o-82">
          <mxGeometry relative="1" as="geometry" />
        </mxCell>
        <mxCell id="zbqO09zLsfdr7-2cjy7o-62" value="STEP 3" style="shape=umlFrame;whiteSpace=wrap;html=1;pointerEvents=0;" vertex="1" parent="1">
          <mxGeometry x="730" y="530" width="360" height="70" as="geometry" />
        </mxCell>
        <mxCell id="zbqO09zLsfdr7-2cjy7o-63" value="IMMIDEATELY&lt;br&gt;CALL THE PROPERTY MANAGER FOR ADVISE AND&amp;nbsp;&lt;br&gt;GET CLEARANCE TO SHUT OFF MAIN WATER VALVE" style="text;html=1;align=center;verticalAlign=middle;resizable=0;points=[];autosize=1;strokeColor=none;fillColor=none;" vertex="1" parent="1">
          <mxGeometry x="775" y="540" width="330" height="60" as="geometry" />
        </mxCell>
        <mxCell id="zbqO09zLsfdr7-2cjy7o-64" value="" style="edgeStyle=orthogonalEdgeStyle;html=1;verticalAlign=bottom;endArrow=open;endSize=8;strokeColor=#ff0000;rounded=0;" edge="1" parent="1">
          <mxGeometry relative="1" as="geometry">
            <mxPoint x="600" y="440" as="targetPoint" />
            <mxPoint x="600" y="400" as="sourcePoint" />
          </mxGeometry>
        </mxCell>
        <mxCell id="zbqO09zLsfdr7-2cjy7o-65" value="" style="shape=line;html=1;strokeWidth=6;strokeColor=#ff0000;" vertex="1" parent="1">
          <mxGeometry x="280" y="1070" width="330" height="10" as="geometry" />
        </mxCell>
        <mxCell id="zbqO09zLsfdr7-2cjy7o-66" value="Fork" style="text;html=1;align=center;verticalAlign=middle;resizable=0;points=[];autosize=1;strokeColor=none;fillColor=none;" vertex="1" parent="1">
          <mxGeometry x="422" y="1050" width="50" height="30" as="geometry" />
        </mxCell>
        <mxCell id="zbqO09zLsfdr7-2cjy7o-67" value="" style="edgeStyle=orthogonalEdgeStyle;html=1;verticalAlign=bottom;endArrow=open;endSize=8;strokeColor=#ff0000;rounded=0;entryX=0.25;entryY=0.5;entryDx=0;entryDy=0;entryPerimeter=0;" edge="1" parent="1" target="zbqO09zLsfdr7-2cjy7o-65">
          <mxGeometry relative="1" as="geometry">
            <mxPoint x="140" y="1008" as="targetPoint" />
            <mxPoint x="140" y="968" as="sourcePoint" />
            <Array as="points">
              <mxPoint x="140" y="1020" />
              <mxPoint x="363" y="1020" />
            </Array>
          </mxGeometry>
        </mxCell>
        <mxCell id="zbqO09zLsfdr7-2cjy7o-68" value="" style="edgeStyle=orthogonalEdgeStyle;html=1;verticalAlign=bottom;endArrow=open;endSize=8;strokeColor=#ff0000;rounded=0;entryX=0.667;entryY=0.3;entryDx=0;entryDy=0;entryPerimeter=0;" edge="1" parent="1" target="zbqO09zLsfdr7-2cjy7o-65">
          <mxGeometry relative="1" as="geometry">
            <mxPoint x="499.7" y="1008" as="targetPoint" />
            <mxPoint x="499.7" y="968" as="sourcePoint" />
          </mxGeometry>
        </mxCell>
        <mxCell id="zbqO09zLsfdr7-2cjy7o-69" value="" style="edgeStyle=orthogonalEdgeStyle;html=1;verticalAlign=bottom;endArrow=open;endSize=8;strokeColor=#ff0000;rounded=0;entryX=0.809;entryY=0.2;entryDx=0;entryDy=0;entryPerimeter=0;" edge="1" parent="1" target="zbqO09zLsfdr7-2cjy7o-65">
          <mxGeometry relative="1" as="geometry">
            <mxPoint x="577" y="1070" as="targetPoint" />
            <mxPoint x="700" y="800" as="sourcePoint" />
            <Array as="points">
              <mxPoint x="700" y="1010" />
              <mxPoint x="547" y="1010" />
            </Array>
          </mxGeometry>
        </mxCell>
        <mxCell id="zbqO09zLsfdr7-2cjy7o-70" value="" style="edgeStyle=orthogonalEdgeStyle;html=1;verticalAlign=bottom;endArrow=open;endSize=8;strokeColor=#ff0000;rounded=0;" edge="1" parent="1">
          <mxGeometry relative="1" as="geometry">
            <mxPoint x="447" y="1160" as="targetPoint" />
            <mxPoint x="446.5" y="1080" as="sourcePoint" />
          </mxGeometry>
        </mxCell>
        <mxCell id="zbqO09zLsfdr7-2cjy7o-71" value="STEP 3" style="shape=umlFrame;whiteSpace=wrap;html=1;pointerEvents=0;" vertex="1" parent="1">
          <mxGeometry x="300" y="1160" width="290" height="70" as="geometry" />
        </mxCell>
        <mxCell id="zbqO09zLsfdr7-2cjy7o-72" value="SET ALL ELEVATORS ON SERVICE AND&lt;br&gt;TAKE THEM TO TOP MOST FLOOR/LEVEL" style="text;html=1;align=center;verticalAlign=middle;resizable=0;points=[];autosize=1;strokeColor=none;fillColor=none;" vertex="1" parent="1">
          <mxGeometry x="317" y="1190" width="260" height="40" as="geometry" />
        </mxCell>
        <mxCell id="zbqO09zLsfdr7-2cjy7o-73" value="" style="edgeStyle=orthogonalEdgeStyle;html=1;verticalAlign=bottom;endArrow=open;endSize=8;strokeColor=#ff0000;rounded=0;entryX=0.942;entryY=0.2;entryDx=0;entryDy=0;entryPerimeter=0;" edge="1" parent="1" target="zbqO09zLsfdr7-2cjy7o-65">
          <mxGeometry relative="1" as="geometry">
            <mxPoint x="610" y="1040" as="targetPoint" />
            <mxPoint x="850" y="800" as="sourcePoint" />
            <Array as="points">
              <mxPoint x="850" y="800" />
              <mxPoint x="850" y="1030" />
              <mxPoint x="591" y="1030" />
            </Array>
          </mxGeometry>
        </mxCell>
        <mxCell id="zbqO09zLsfdr7-2cjy7o-74" value="Condition" style="rhombus;whiteSpace=wrap;html=1;fontColor=#000000;fillColor=#ffffc0;strokeColor=#ff0000;" vertex="1" parent="1">
          <mxGeometry x="560" y="440" width="80" height="40" as="geometry" />
        </mxCell>
        <mxCell id="zbqO09zLsfdr7-2cjy7o-75" value="" style="edgeStyle=orthogonalEdgeStyle;html=1;align=left;verticalAlign=bottom;endArrow=open;endSize=8;strokeColor=#ff0000;rounded=0;entryX=0.531;entryY=0.014;entryDx=0;entryDy=0;entryPerimeter=0;" edge="1" parent="1" source="zbqO09zLsfdr7-2cjy7o-74" target="zbqO09zLsfdr7-2cjy7o-62">
          <mxGeometry x="-0.2549" y="10" relative="1" as="geometry">
            <mxPoint x="700" y="460" as="targetPoint" />
            <mxPoint as="offset" />
          </mxGeometry>
        </mxCell>
        <mxCell id="zbqO09zLsfdr7-2cjy7o-76" value="" style="edgeStyle=orthogonalEdgeStyle;html=1;align=left;verticalAlign=top;endArrow=open;endSize=8;strokeColor=#ff0000;rounded=0;" edge="1" parent="1" target="zbqO09zLsfdr7-2cjy7o-79">
          <mxGeometry x="0.2" y="60" relative="1" as="geometry">
            <mxPoint x="500" y="460" as="targetPoint" />
            <mxPoint x="560" y="460" as="sourcePoint" />
            <Array as="points">
              <mxPoint x="540" y="460" />
            </Array>
            <mxPoint as="offset" />
          </mxGeometry>
        </mxCell>
        <mxCell id="zbqO09zLsfdr7-2cjy7o-77" value="IF LOCATED AND CONTAINED" style="text;html=1;align=center;verticalAlign=middle;resizable=0;points=[];autosize=1;strokeColor=none;fillColor=none;" vertex="1" parent="1">
          <mxGeometry x="370" y="420" width="190" height="30" as="geometry" />
        </mxCell>
        <mxCell id="zbqO09zLsfdr7-2cjy7o-78" value="IF CAN&#39;T LOCATE OR SHUTTING OFF DIDN&#39;T WORK" style="text;html=1;align=center;verticalAlign=middle;resizable=0;points=[];autosize=1;strokeColor=none;fillColor=none;" vertex="1" parent="1">
          <mxGeometry x="645.2" y="430" width="320" height="30" as="geometry" />
        </mxCell>
        <mxCell id="zbqO09zLsfdr7-2cjy7o-79" value="STEP 3" style="shape=umlFrame;whiteSpace=wrap;html=1;pointerEvents=0;" vertex="1" parent="1">
          <mxGeometry x="495.2" y="530" width="214.8" height="70" as="geometry" />
        </mxCell>
        <mxCell id="zbqO09zLsfdr7-2cjy7o-80" style="edgeStyle=orthogonalEdgeStyle;rounded=0;orthogonalLoop=1;jettySize=auto;html=1;entryX=0.25;entryY=0.5;entryDx=0;entryDy=0;entryPerimeter=0;strokeColor=#FF3333;" edge="1" parent="1" source="zbqO09zLsfdr7-2cjy7o-81" target="zbqO09zLsfdr7-2cjy7o-82">
          <mxGeometry relative="1" as="geometry">
            <Array as="points">
              <mxPoint x="600" y="640" />
              <mxPoint x="821" y="640" />
            </Array>
          </mxGeometry>
        </mxCell>
        <mxCell id="zbqO09zLsfdr7-2cjy7o-81" value="INFORM PROPERTY MANAGER &lt;br&gt;IMMIDEATELY ABOUT THE FLOOD" style="text;html=1;align=center;verticalAlign=middle;resizable=0;points=[];autosize=1;strokeColor=none;fillColor=none;" vertex="1" parent="1">
          <mxGeometry x="490" y="560" width="220" height="40" as="geometry" />
        </mxCell>
        <mxCell id="zbqO09zLsfdr7-2cjy7o-82" value="" style="shape=line;html=1;strokeWidth=6;strokeColor=#ff0000;" vertex="1" parent="1">
          <mxGeometry x="790" y="800" width="122" height="10" as="geometry" />
        </mxCell>
      </root>
    </mxGraphModel>
  </diagram>
</mxfile>
